<svg viewBox="0 0 100 100" xmlns="http://www.w3.org/2000/svg">
  <rect width="100" height="100" fill="hsl(220, 12%, 30%)" />
  <line x1="-5" y1="-5" x2="105" y2="105" stroke="hsla(120, 20%, 15%, 0.3)" stroke-width="5" />
  <line x1="-5" y1="5" x2="95" y2="105" stroke="hsla(120, 20%, 15%, 0.3)" stroke-width="5" />
  <line x1="-5" y1="15" x2="85" y2="105" stroke="hsla(120, 20%, 15%, 0.3)" stroke-width="5" />
  <line x1="-5" y1="25" x2="75" y2="105" stroke="hsla(120, 20%, 15%, 0.3)" stroke-width="5" />
  <line x1="-5" y1="35" x2="65" y2="105" stroke="hsla(120, 20%, 15%, 0.3)" stroke-width="5" />
  <line x1="-5" y1="45" x2="55" y2="105" stroke="hsla(120, 20%, 15%, 0.3)" stroke-width="5" />
  <line x1="-5" y1="55" x2="45" y2="105" stroke="hsla(120, 20%, 15%, 0.3)" stroke-width="5" />
  <line x1="-5" y1="65" x2="35" y2="105" stroke="hsla(120, 20%, 15%, 0.3)" stroke-width="5" />
  <line x1="-5" y1="75" x2="25" y2="105" stroke="hsla(120, 20%, 15%, 0.3)" stroke-width="5" />
  <line x1="-5" y1="85" x2="15" y2="105" stroke="hsla(120, 20%, 15%, 0.3)" stroke-width="5" />
  <line x1="-5" y1="95" x2="5" y2="105" stroke="hsla(120, 20%, 15%, 0.3)" stroke-width="5" />
  <line x1="5" y1="-5" x2="105" y2="95" stroke="hsla(120, 20%, 15%, 0.3)" stroke-width="5" />
  <line x1="15" y1="-5" x2="105" y2="85" stroke="hsla(120, 20%, 15%, 0.3)" stroke-width="5" />
  <line x1="25" y1="-5" x2="105" y2="75" stroke="hsla(120, 20%, 15%, 0.3)" stroke-width="5" />
  <line x1="35" y1="-5" x2="105" y2="65" stroke="hsla(120, 20%, 15%, 0.3)" stroke-width="5" />
  <line x1="45" y1="-5" x2="105" y2="55" stroke="hsla(120, 20%, 15%, 0.3)" stroke-width="5" />
  <line x1="55" y1="-5" x2="105" y2="45" stroke="hsla(120, 20%, 15%, 0.3)" stroke-width="5" />
  <line x1="65" y1="-5" x2="105" y2="35" stroke="hsla(120, 20%, 15%, 0.3)" stroke-width="5" />
  <line x1="75" y1="-5" x2="105" y2="25" stroke="hsla(120, 20%, 15%, 0.3)" stroke-width="5" />
  <line x1="85" y1="-5" x2="105" y2="15" stroke="hsla(120, 20%, 15%, 0.3)" stroke-width="5" />
  <line x1="95" y1="-5" x2="105" y2="5" stroke="hsla(120, 20%, 15%, 0.3)" stroke-width="5" />
</svg>